<svg width="157" height="64" viewBox="0 0 157 64" fill="none" xmlns="http://www.w3.org/2000/svg">
<g clip-path="url(#clip0_3:2)">
<path d="M62.8438 10.6641C62.8438 11.3672 62.7266 12.2135 62.4922 13.2031C62.2839 14.1927 61.9714 15.2214 61.5547 16.2891C61.138 17.3568 60.6302 18.4245 60.0312 19.4922C59.4583 20.5339 58.7943 21.4844 58.0391 22.3438C57.2839 23.1771 56.4635 23.8542 55.5781 24.375C54.6927 24.8958 53.7422 25.1562 52.7266 25.1562C52.4922 25.1562 52.1797 25.1432 51.7891 25.1172C51.4245 25.0651 51.0469 24.974 50.6562 24.8438C50.2917 24.6875 49.9661 24.4661 49.6797 24.1797C49.4193 23.8932 49.2891 23.5156 49.2891 23.0469C49.2891 22.7344 49.3672 22.3698 49.5234 21.9531C49.7057 21.5365 50.0182 21.0547 50.4609 20.5078C50.9297 19.987 51.4375 19.375 51.9844 18.6719C52.5312 17.9427 53.026 17.1875 53.4688 16.4062C53.9115 15.625 54.276 14.8568 54.5625 14.1016C54.875 13.3464 55.0312 12.6693 55.0312 12.0703C55.0312 11.3151 54.849 10.7161 54.4844 10.2734C54.1458 9.80469 53.5469 9.57031 52.6875 9.57031C51.5677 9.57031 50.3047 9.9349 48.8984 10.6641C47.4922 11.3932 46.0208 12.3958 44.4844 13.6719C42.9479 14.9479 41.3854 16.4453 39.7969 18.1641C38.2083 19.8568 36.6719 21.6797 35.1875 23.6328C33.7031 25.5599 32.2969 27.5781 30.9688 29.6875C29.6667 31.7708 28.5208 33.8411 27.5312 35.8984C26.5677 37.9297 25.7995 39.8958 25.2266 41.7969C24.6797 43.6719 24.4062 45.3776 24.4062 46.9141C24.4062 48.8151 24.9141 50.3385 25.9297 51.4844C26.9453 52.6302 28.625 53.2031 30.9688 53.2031C32.0625 53.2031 33.6901 52.7865 35.8516 51.9531C38.013 51.0938 39.8099 50.2474 41.2422 49.4141C42.7005 48.5547 44.1589 47.6172 45.6172 46.6016C47.1016 45.5599 48.5078 44.5703 49.8359 43.6328C51.1641 42.6693 52.375 41.8099 53.4688 41.0547C54.5625 40.2734 55.4609 39.7266 56.1641 39.4141C56.2943 39.3099 56.4505 39.2578 56.6328 39.2578C57.0234 39.2578 57.2839 39.5833 57.4141 40.2344C57.5703 40.8594 57.6484 41.5755 57.6484 42.3828C57.6484 42.8255 57.5833 43.3724 57.4531 44.0234C57.349 44.6484 56.9844 45.3776 56.3594 46.2109C56.0729 46.5495 55.5391 47.1224 54.7578 47.9297C53.9766 48.737 53 49.6484 51.8281 50.6641C50.6562 51.6797 49.3151 52.7344 47.8047 53.8281C46.2943 54.9219 44.6536 55.9245 42.8828 56.8359C41.138 57.7474 38.8724 58.6458 36.0859 59.5312C33.3255 60.4167 30.9167 60.8594 28.8594 60.8594C26.4375 60.8594 24.3672 60.5729 22.6484 60C20.9297 59.401 19.5234 58.5807 18.4297 57.5391C17.3359 56.4974 16.5286 55.2604 16.0078 53.8281C15.513 52.3698 15.2656 50.7812 15.2656 49.0625C15.2656 46.9271 15.5911 44.6354 16.2422 42.1875C16.8932 39.7396 17.7917 37.2526 18.9375 34.7266C20.1094 32.2005 21.4896 29.6745 23.0781 27.1484C24.6927 24.6224 26.4505 22.2135 28.3516 19.9219C30.2786 17.6042 32.3229 15.4557 34.4844 13.4766C36.6458 11.4974 38.8594 9.77865 41.125 8.32031C43.3906 6.86198 45.6693 5.71615 47.9609 4.88281C50.2526 4.04948 52.5052 3.63281 54.7188 3.63281C55.8125 3.63281 56.8542 3.76302 57.8438 4.02344C58.8333 4.25781 59.6927 4.64844 60.4219 5.19531C61.1771 5.74219 61.763 6.47135 62.1797 7.38281C62.6224 8.26823 62.8438 9.36198 62.8438 10.6641ZM60.8516 48.7109C60.5651 49.3099 60.2786 50.013 59.9922 50.8203C59.7318 51.6016 59.6016 52.3047 59.6016 52.9297C59.6016 53.3203 59.6797 53.6328 59.8359 53.8672C59.9922 54.1016 60.2917 54.2188 60.7344 54.2188C61.2812 54.2188 61.9583 54.0625 62.7656 53.75C63.599 53.4115 64.4844 52.9818 65.4219 52.4609C66.3854 51.9141 67.375 51.3021 68.3906 50.625C69.4323 49.9219 70.4609 49.2057 71.4766 48.4766C72.4922 47.7214 73.4557 46.9792 74.3672 46.25C75.3047 45.4948 76.138 44.8047 76.8672 44.1797C77.0755 43.9974 77.3229 43.8672 77.6094 43.7891C77.8958 43.7109 78.1432 43.6719 78.3516 43.6719C78.8724 43.6719 79.3021 43.8542 79.6406 44.2188C79.9792 44.5833 80.1484 45.0651 80.1484 45.6641C80.1484 46.2109 79.9661 46.8229 79.6016 47.5C79.237 48.1771 78.599 48.8411 77.6875 49.4922C76.0208 51.0286 74.3411 52.487 72.6484 53.8672C70.9557 55.2474 69.263 56.4714 67.5703 57.5391C65.9036 58.5807 64.237 59.4141 62.5703 60.0391C60.9297 60.6641 59.3281 60.9766 57.7656 60.9766C56.6979 60.9766 55.7995 60.8333 55.0703 60.5469C54.3672 60.2604 53.7943 59.8698 53.3516 59.375C52.9349 58.8802 52.6354 58.2943 52.4531 57.6172C52.2708 56.9401 52.1797 56.224 52.1797 55.4688C52.1797 54.1927 52.362 52.8906 52.7266 51.5625C53.1172 50.2083 53.5729 48.9714 54.0938 47.8516C55.0052 45.8203 55.9297 43.8021 56.8672 41.7969C57.8047 39.7917 58.6641 37.9557 59.4453 36.2891L71.2812 11.0938C71.75 10.0781 72.375 9.36198 73.1562 8.94531C73.9635 8.52865 74.7708 8.32031 75.5781 8.32031C76.3854 8.32031 77.1146 8.54167 77.7656 8.98438C78.4427 9.42708 78.7812 10.1432 78.7812 11.1328C78.7812 11.6016 78.6641 12.0964 78.4297 12.6172C78.2214 13.138 77.9479 13.6979 77.6094 14.2969C76.9583 15.5208 76.1771 17.0182 75.2656 18.7891C74.3802 20.5599 73.4167 22.487 72.375 24.5703C71.3594 26.6536 70.3047 28.8281 69.2109 31.0938C68.1432 33.3333 67.0885 35.5208 66.0469 37.6562C65.0312 39.7917 64.0677 41.8229 63.1562 43.75C62.2708 45.651 61.5026 47.3047 60.8516 48.7109ZM91.0469 36.9531C90.9167 36.9271 90.7995 36.9141 90.6953 36.9141C90.5911 36.9141 90.474 36.9141 90.3438 36.9141C89.3542 36.9141 88.4297 37.1094 87.5703 37.5C86.7109 37.8906 85.9167 38.4115 85.1875 39.0625C84.4844 39.6875 83.8464 40.4036 83.2734 41.2109C82.7266 42.0182 82.2318 42.8255 81.7891 43.6328C81.3464 44.4141 80.9688 45.1693 80.6562 45.8984C80.3698 46.6276 80.1484 47.2396 79.9922 47.7344C80.9036 47.2656 81.8411 46.7318 82.8047 46.1328C83.7943 45.5339 84.7188 44.9609 85.5781 44.4141C86.4375 43.8672 87.1797 43.3724 87.8047 42.9297C88.4557 42.487 88.9115 42.1875 89.1719 42.0312C90.3438 41.3021 91.151 40.625 91.5938 40C92.0365 39.349 92.2578 38.7891 92.2578 38.3203C92.2578 37.9297 92.1276 37.6172 91.8672 37.3828C91.6328 37.1484 91.3594 37.0052 91.0469 36.9531ZM92.4531 31.5625C94.6146 31.5625 96.2292 32.0833 97.2969 33.125C98.3646 34.1667 98.8984 35.612 98.8984 37.4609C98.8984 38.5547 98.612 39.7005 98.0391 40.8984C97.4661 42.0964 96.4766 43.3203 95.0703 44.5703C93.6641 45.7943 91.776 47.0573 89.4062 48.3594C87.0625 49.6354 84.1198 50.9245 80.5781 52.2266C80.7083 52.9818 81.112 53.5807 81.7891 54.0234C82.4661 54.4401 83.3646 54.6484 84.4844 54.6484C85.6823 54.6484 86.9583 54.4792 88.3125 54.1406C89.6927 53.776 91.0469 53.3203 92.375 52.7734C93.7292 52.2266 95.0443 51.6406 96.3203 51.0156C97.5964 50.3646 98.7422 49.7526 99.7578 49.1797C100.799 48.6068 101.659 48.112 102.336 47.6953C103.039 47.2786 103.508 47.0182 103.742 46.9141C103.977 46.7578 104.185 46.6667 104.367 46.6406C104.576 46.6146 104.758 46.6016 104.914 46.6016C105.227 46.6016 105.487 46.6797 105.695 46.8359C105.904 46.9661 106.073 47.1354 106.203 47.3438C106.359 47.526 106.464 47.7344 106.516 47.9688C106.568 48.1771 106.594 48.3594 106.594 48.5156C106.594 48.75 106.568 49.0365 106.516 49.375C106.464 49.6875 106.268 50.0521 105.93 50.4688C105.799 50.599 105.357 50.9505 104.602 51.5234C103.872 52.0964 102.922 52.7734 101.75 53.5547C100.578 54.3359 99.2109 55.1693 97.6484 56.0547C96.112 56.9141 94.4714 57.7083 92.7266 58.4375C91.0078 59.1667 89.2109 59.7656 87.3359 60.2344C85.4609 60.7292 83.612 60.9766 81.7891 60.9766C80.2266 60.9766 78.8333 60.6771 77.6094 60.0781C76.4115 59.4792 75.3828 58.6719 74.5234 57.6562C73.6901 56.6406 73.0521 55.4688 72.6094 54.1406C72.1667 52.8125 71.9453 51.4193 71.9453 49.9609C71.9453 48.8411 72.1667 47.6172 72.6094 46.2891C73.0521 44.9349 73.6901 43.5807 74.5234 42.2266C75.3568 40.8724 76.3724 39.5573 77.5703 38.2812C78.7943 36.9792 80.1615 35.8333 81.6719 34.8438C83.1823 33.8542 84.8359 33.0599 86.6328 32.4609C88.4557 31.862 90.3958 31.5625 92.4531 31.5625ZM117.375 38.4766C116.151 38.4766 114.966 38.7891 113.82 39.4141C112.701 40.013 111.698 40.8203 110.812 41.8359C109.953 42.8255 109.263 43.9583 108.742 45.2344C108.221 46.4844 107.961 47.7734 107.961 49.1016C107.961 49.5964 108 50.1432 108.078 50.7422C108.156 51.3151 108.312 51.862 108.547 52.3828C108.807 52.8776 109.172 53.2943 109.641 53.6328C110.109 53.9714 110.734 54.1406 111.516 54.1406C112.714 54.1406 113.872 53.8281 114.992 53.2031C116.138 52.5521 117.154 51.7188 118.039 50.7031C118.924 49.6615 119.628 48.4896 120.148 47.1875C120.669 45.8854 120.93 44.5703 120.93 43.2422C120.93 42.7214 120.891 42.1875 120.812 41.6406C120.76 41.0677 120.604 40.5469 120.344 40.0781C120.109 39.6094 119.758 39.2318 119.289 38.9453C118.82 38.6328 118.182 38.4766 117.375 38.4766ZM119.406 31.6016C120.396 31.6016 121.451 31.7318 122.57 31.9922C123.716 32.2526 124.771 32.6953 125.734 33.3203C126.698 33.9453 127.492 34.7786 128.117 35.8203C128.768 36.8359 129.094 38.099 129.094 39.6094C129.094 40.3906 128.99 41.2891 128.781 42.3047C128.573 43.2943 128.26 44.3359 127.844 45.4297C128.104 45.7422 128.404 45.9635 128.742 46.0938C129.081 46.224 129.445 46.2891 129.836 46.2891C130.383 46.2891 130.982 46.1328 131.633 45.8203C132.31 45.5078 133 45.1042 133.703 44.6094C134.406 44.1146 135.109 43.5547 135.812 42.9297C136.516 42.3047 137.18 41.6797 137.805 41.0547C138.43 40.4297 138.99 39.8438 139.484 39.2969C140.005 38.724 140.435 38.2422 140.773 37.8516C140.956 37.6693 141.177 37.5781 141.438 37.5781C141.802 37.5781 142.128 37.7734 142.414 38.1641C142.701 38.5286 142.844 39.0495 142.844 39.7266C142.844 40.4036 142.635 41.1849 142.219 42.0703C141.828 42.9557 141.086 43.8802 139.992 44.8438C139.367 45.5208 138.651 46.3021 137.844 47.1875C137.036 48.0729 136.177 48.9062 135.266 49.6875C134.354 50.4688 133.404 51.1328 132.414 51.6797C131.424 52.2266 130.435 52.5 129.445 52.5C128.768 52.5 128.104 52.3958 127.453 52.1875C126.828 51.9792 126.19 51.6406 125.539 51.1719C124.602 52.6302 123.534 53.9583 122.336 55.1562C121.138 56.3542 119.797 57.3828 118.312 58.2422C116.854 59.1016 115.266 59.7656 113.547 60.2344C111.854 60.7292 110.044 60.9766 108.117 60.9766C107.388 60.9766 106.542 60.8333 105.578 60.5469C104.615 60.2604 103.69 59.7917 102.805 59.1406C101.945 58.4635 101.216 57.5911 100.617 56.5234C100.018 55.4557 99.7188 54.1536 99.7188 52.6172C99.7188 51.5755 99.888 50.3255 100.227 48.8672C100.565 47.4089 101.073 45.9115 101.75 44.375C102.453 42.8125 103.326 41.276 104.367 39.7656C105.435 38.2292 106.698 36.862 108.156 35.6641C109.615 34.4401 111.281 33.4635 113.156 32.7344C115.031 31.9792 117.115 31.6016 119.406 31.6016Z" fill="black"/>
</g>
<defs>
<clipPath id="clip0_3:2">
<rect width="157" height="64" fill="white"/>
</clipPath>
</defs>
</svg>
